<?xml version="1.0" encoding="UTF-8"?>
<svg xmlns="http://www.w3.org/2000/svg" xmlns:xlink="http://www.w3.org/1999/xlink" width="40" height="40" viewBox="0 0 40 40" version="1.1">
<g id="surface1">
<path style=" stroke:none;fill-rule:evenodd;fill:rgb(25.882353%,52.156863%,95.686275%);fill-opacity:1;" d="M 38.402344 20.433594 C 38.402344 19.074219 38.277344 17.769531 38.050781 16.515625 L 20 16.515625 L 20 23.929688 L 30.316406 23.929688 C 29.871094 26.324219 28.519531 28.355469 26.488281 29.714844 L 26.488281 34.523438 L 32.683594 34.523438 C 36.308594 31.183594 38.402344 26.273438 38.402344 20.433594 Z M 38.402344 20.433594 "/>
<path style=" stroke:none;fill-rule:evenodd;fill:rgb(20.392157%,65.882353%,32.54902%);fill-opacity:1;" d="M 20 39.167969 C 25.175781 39.167969 29.511719 37.449219 32.683594 34.523438 L 26.488281 29.714844 C 24.773438 30.863281 22.578125 31.542969 20 31.542969 C 15.007812 31.542969 10.785156 28.171875 9.277344 23.640625 L 2.871094 23.640625 L 2.871094 28.605469 C 6.027344 34.871094 12.507812 39.167969 20 39.167969 Z M 20 39.167969 "/>
<path style=" stroke:none;fill-rule:evenodd;fill:rgb(98.431373%,73.72549%,1.960784%);fill-opacity:1;" d="M 9.277344 23.644531 C 8.894531 22.492188 8.675781 21.261719 8.675781 20 C 8.675781 18.738281 8.894531 17.507812 9.277344 16.359375 L 9.277344 11.394531 L 2.871094 11.394531 C 1.574219 13.980469 0.832031 16.910156 0.832031 20 C 0.832031 23.09375 1.574219 26.019531 2.871094 28.605469 Z M 9.277344 23.644531 "/>
<path style=" stroke:none;fill-rule:evenodd;fill:rgb(91.764706%,26.27451%,20.784314%);fill-opacity:1;" d="M 20 8.457031 C 22.816406 8.457031 25.339844 9.425781 27.324219 11.324219 L 32.824219 5.824219 C 29.503906 2.730469 25.167969 0.832031 20 0.832031 C 12.507812 0.832031 6.027344 5.128906 2.871094 11.394531 L 9.277344 16.355469 C 10.785156 11.828125 15.007812 8.457031 20 8.457031 Z M 20 8.457031 "/>
</g>
</svg>
