<?xml version="1.0" encoding="UTF-8"?>
<svg xmlns="http://www.w3.org/2000/svg" xmlns:xlink="http://www.w3.org/1999/xlink" width="40" height="40" viewBox="0 0 40 40" version="1.1">
<g id="surface1">
<path style=" stroke:none;fill-rule:nonzero;fill:rgb(99.607843%,89.803922%,0%);fill-opacity:1;" d="M 40 20 C 40 31.042969 31.042969 40 20 40 C 8.957031 40 0 31.042969 0 20 C 0 8.957031 8.957031 0 20 0 C 31.042969 0 40 8.957031 40 20 Z M 40 20 "/>
<path style=" stroke:none;fill-rule:nonzero;fill:rgb(22.352941%,12.54902%,12.54902%);fill-opacity:1;" d="M 20.058594 9.652344 C 13.835938 9.652344 8.816406 13.667969 8.816406 18.542969 C 8.816406 21.703125 10.902344 24.472656 14.035156 26.054688 L 12.976562 30.011719 C 12.957031 30.074219 12.953125 30.136719 12.964844 30.199219 C 12.980469 30.261719 13.011719 30.316406 13.058594 30.359375 C 13.121094 30.417969 13.203125 30.449219 13.289062 30.449219 C 13.363281 30.441406 13.425781 30.414062 13.480469 30.367188 L 18.042969 27.292969 C 18.714844 27.386719 19.394531 27.433594 20.074219 27.4375 C 26.289062 27.4375 31.316406 23.421875 31.316406 18.542969 C 31.316406 13.660156 26.269531 9.652344 20.058594 9.652344 Z M 20.058594 9.652344 "/>
<path style=" stroke:none;fill-rule:nonzero;fill:rgb(99.607843%,89.803922%,0%);fill-opacity:1;" d="M 12.753906 17.136719 L 11.523438 17.136719 C 11.371094 17.140625 11.222656 17.101562 11.089844 17.023438 C 11.03125 16.988281 10.980469 16.941406 10.941406 16.882812 C 10.902344 16.824219 10.878906 16.761719 10.863281 16.691406 C 10.863281 16.652344 10.863281 16.605469 10.863281 16.566406 C 10.863281 16.488281 10.878906 16.40625 10.910156 16.332031 C 10.941406 16.261719 10.996094 16.199219 11.058594 16.148438 C 11.199219 16.046875 11.363281 15.992188 11.539062 15.996094 L 15.238281 15.996094 C 15.394531 15.988281 15.542969 16.03125 15.675781 16.113281 C 15.730469 16.152344 15.785156 16.199219 15.824219 16.253906 C 15.863281 16.3125 15.886719 16.378906 15.898438 16.445312 C 15.902344 16.484375 15.902344 16.527344 15.898438 16.566406 C 15.902344 16.644531 15.886719 16.726562 15.855469 16.800781 C 15.820312 16.875 15.769531 16.941406 15.707031 16.988281 C 15.566406 17.089844 15.402344 17.144531 15.230469 17.136719 L 14.042969 17.136719 L 14.042969 21.359375 C 14.050781 21.449219 14.035156 21.539062 14.003906 21.621094 C 13.972656 21.707031 13.921875 21.785156 13.859375 21.847656 C 13.800781 21.910156 13.726562 21.957031 13.644531 21.988281 C 13.566406 22.019531 13.480469 22.035156 13.394531 22.035156 C 13.242188 22.035156 13.097656 21.988281 12.976562 21.894531 C 12.863281 21.808594 12.785156 21.675781 12.761719 21.535156 C 12.753906 21.476562 12.753906 21.417969 12.761719 21.359375 Z M 12.753906 17.136719 "/>
<path style=" stroke:none;fill-rule:nonzero;fill:rgb(99.607843%,89.803922%,0%);fill-opacity:1;" d="M 16.253906 16.308594 C 16.289062 16.175781 16.371094 16.0625 16.488281 15.988281 C 16.605469 15.917969 16.746094 15.886719 16.886719 15.890625 L 17.191406 15.890625 C 17.339844 15.886719 17.488281 15.921875 17.617188 15.996094 C 17.753906 16.089844 17.851562 16.230469 17.890625 16.386719 L 19.496094 20.925781 C 19.539062 21.042969 19.574219 21.164062 19.601562 21.285156 C 19.605469 21.339844 19.605469 21.386719 19.601562 21.441406 C 19.605469 21.519531 19.589844 21.597656 19.558594 21.667969 C 19.527344 21.738281 19.480469 21.804688 19.425781 21.855469 C 19.367188 21.914062 19.300781 21.957031 19.226562 21.988281 C 19.152344 22.019531 19.074219 22.035156 18.988281 22.035156 C 18.867188 22.042969 18.742188 22.015625 18.636719 21.949219 C 18.535156 21.878906 18.453125 21.78125 18.410156 21.664062 L 18.074219 20.675781 L 15.964844 20.675781 L 15.628906 21.664062 C 15.585938 21.785156 15.503906 21.886719 15.402344 21.953125 C 15.292969 22.019531 15.167969 22.050781 15.042969 22.035156 C 14.902344 22.035156 14.769531 21.996094 14.664062 21.910156 C 14.558594 21.828125 14.488281 21.707031 14.464844 21.574219 C 14.457031 21.527344 14.457031 21.484375 14.464844 21.441406 C 14.449219 21.359375 14.449219 21.277344 14.464844 21.199219 C 14.464844 21.109375 14.519531 21.011719 14.550781 20.925781 Z M 17.058594 17.359375 L 16.292969 19.769531 L 17.808594 19.769531 Z M 17.058594 17.359375 "/>
<path style=" stroke:none;fill-rule:nonzero;fill:rgb(99.607843%,89.803922%,0%);fill-opacity:1;" d="M 19.785156 16.566406 C 19.777344 16.386719 19.839844 16.207031 19.960938 16.074219 C 20.023438 16.011719 20.097656 15.964844 20.179688 15.933594 C 20.261719 15.902344 20.347656 15.886719 20.433594 15.890625 C 20.585938 15.886719 20.730469 15.9375 20.855469 16.027344 C 20.964844 16.121094 21.039062 16.253906 21.058594 16.394531 C 21.070312 16.453125 21.070312 16.511719 21.058594 16.566406 L 21.058594 20.789062 L 23.269531 20.789062 C 23.421875 20.785156 23.574219 20.828125 23.703125 20.910156 C 23.761719 20.945312 23.8125 20.996094 23.847656 21.050781 C 23.886719 21.105469 23.917969 21.167969 23.925781 21.238281 C 23.925781 21.238281 23.925781 21.316406 23.925781 21.359375 C 23.933594 21.441406 23.917969 21.519531 23.882812 21.589844 C 23.847656 21.664062 23.800781 21.726562 23.734375 21.777344 C 23.597656 21.878906 23.425781 21.933594 23.253906 21.929688 L 20.539062 21.929688 C 20.367188 21.941406 20.195312 21.894531 20.050781 21.800781 C 19.917969 21.703125 19.832031 21.558594 19.808594 21.398438 C 19.800781 21.308594 19.800781 21.222656 19.808594 21.136719 Z M 19.785156 16.566406 "/>
<path style=" stroke:none;fill-rule:nonzero;fill:rgb(99.607843%,89.803922%,0%);fill-opacity:1;" d="M 24.074219 16.566406 C 24.066406 16.386719 24.128906 16.210938 24.246094 16.074219 C 24.371094 15.964844 24.523438 15.902344 24.683594 15.894531 C 24.847656 15.886719 25.011719 15.933594 25.140625 16.027344 C 25.253906 16.121094 25.332031 16.253906 25.355469 16.394531 C 25.363281 16.453125 25.363281 16.511719 25.355469 16.566406 L 25.355469 18.535156 L 27.386719 16.1875 C 27.464844 16.105469 27.550781 16.035156 27.636719 15.964844 C 27.722656 15.914062 27.816406 15.886719 27.910156 15.890625 C 28.050781 15.890625 28.1875 15.933594 28.300781 16.011719 C 28.355469 16.050781 28.402344 16.097656 28.441406 16.152344 C 28.476562 16.207031 28.503906 16.269531 28.511719 16.332031 C 28.515625 16.347656 28.515625 16.363281 28.511719 16.378906 C 28.507812 16.402344 28.507812 16.417969 28.511719 16.4375 C 28.511719 16.519531 28.488281 16.605469 28.449219 16.675781 C 28.40625 16.753906 28.355469 16.828125 28.292969 16.894531 L 26.964844 18.355469 L 28.566406 20.847656 L 28.566406 20.925781 C 28.652344 21.042969 28.714844 21.167969 28.761719 21.300781 L 28.761719 21.34375 C 28.769531 21.433594 28.757812 21.527344 28.722656 21.617188 C 28.6875 21.703125 28.628906 21.777344 28.558594 21.839844 C 28.425781 21.941406 28.261719 21.996094 28.097656 21.996094 C 27.984375 21.996094 27.871094 21.972656 27.773438 21.921875 C 27.667969 21.847656 27.578125 21.753906 27.519531 21.640625 L 26.023438 19.230469 L 25.308594 19.980469 L 25.308594 21.316406 C 25.316406 21.496094 25.25 21.675781 25.132812 21.808594 C 25.066406 21.871094 24.996094 21.917969 24.910156 21.949219 C 24.828125 21.980469 24.738281 21.996094 24.652344 21.996094 C 24.503906 21.996094 24.355469 21.949219 24.238281 21.855469 C 24.128906 21.765625 24.050781 21.636719 24.023438 21.496094 C 24.015625 21.4375 24.015625 21.378906 24.023438 21.316406 Z M 24.074219 16.566406 "/>
</g>
</svg>
