<?xml version="1.0" encoding="UTF-8"?>
<svg xmlns="http://www.w3.org/2000/svg" xmlns:xlink="http://www.w3.org/1999/xlink" width="40" height="40" viewBox="0 0 40 40" version="1.1">
<g id="surface1">
<path style=" stroke:none;fill-rule:nonzero;fill:rgb(0%,0%,0%);fill-opacity:1;" d="M 10.886719 0.808594 L 1.210938 1.210938 L 0.96875 19.675781 C 0.808594 32.582031 1.050781 38.46875 1.691406 39.191406 C 2.417969 40.082031 6.289062 40.324219 20.160156 40.324219 C 34.03125 40.324219 37.902344 40.082031 38.628906 39.191406 C 39.273438 38.46875 39.515625 32.582031 39.355469 19.675781 L 39.113281 1.210938 L 29.839844 0.808594 C 24.757812 0.566406 16.210938 0.566406 10.886719 0.808594 Z M 15.324219 8.789062 C 16.53125 11.210938 15.484375 13.066406 12.984375 12.742188 C 11.449219 12.582031 10.808594 11.933594 10.644531 10.566406 C 10.160156 7.417969 13.789062 6.050781 15.324219 8.789062 Z M 28.871094 7.984375 C 29.515625 8.308594 29.839844 9.515625 29.675781 10.566406 C 29.355469 13.226562 25.402344 13.789062 24.597656 11.289062 C 23.710938 8.386719 26.371094 6.371094 28.871094 7.984375 Z M 12.902344 21.53125 C 12.902344 22.257812 13.871094 23.949219 15.082031 25.160156 C 19.03125 29.355469 25.726562 27.660156 27.097656 22.175781 C 27.742188 19.597656 29.839844 19.515625 29.839844 22.097656 C 29.839844 24.757812 26.371094 28.710938 22.984375 29.839844 C 19.273438 31.050781 15.242188 29.757812 12.5 26.53125 C 10.242188 23.789062 9.757812 20.160156 11.691406 20.160156 C 12.339844 20.160156 12.902344 20.808594 12.902344 21.53125 Z M 12.902344 21.53125 "/>
</g>
</svg>
