<svg width="430" height="803" viewBox="0 0 430 803" fill="none" xmlns="http://www.w3.org/2000/svg">
<ellipse cx="215" cy="401.5" rx="325" ry="401.5" fill="#B2ACF9"/>
<rect x="73.923" y="149.857" width="281.706" height="19.4286" rx="9.71429" fill="#EFC7D6"/>
<ellipse cx="279.493" cy="162" rx="53.2958" ry="51" fill="#EFC7D6"/>
<ellipse cx="280.127" cy="161.393" rx="38.7029" ry="37.0357" fill="black"/>
<ellipse cx="267.437" cy="148.036" rx="12.055" ry="11.5357" fill="white"/>
<ellipse cx="252.21" cy="163.821" rx="5.71027" ry="5.46429" fill="white"/>
<ellipse cx="151.329" cy="162" rx="53.2958" ry="51" fill="#EFC7D6"/>
<ellipse cx="151.963" cy="161.393" rx="38.7029" ry="37.0357" fill="black"/>
<ellipse cx="139.274" cy="148.036" rx="12.055" ry="11.5357" fill="white"/>
<ellipse cx="124.046" cy="163.821" rx="5.71027" ry="5.46429" fill="white"/>
<ellipse cx="215.522" cy="228.5" rx="16.1978" ry="15.5" fill="black"/>
<ellipse cx="283.93" cy="236.553" rx="19.2776" ry="18.4472" fill="white"/>
<path d="M282.218 202.838C282.996 201.549 284.865 201.549 285.643 202.838L301.975 229.908C302.779 231.241 301.819 232.941 300.263 232.941H267.598C266.041 232.941 265.081 231.241 265.885 229.908L282.218 202.838Z" fill="white"/>
</svg>
